<?xml version="1.0" encoding="utf-8"?>
<!-- Generator: Adobe Illustrator 27.3.1, SVG Export Plug-In . SVG Version: 6.00 Build 0)  -->
<svg version="1.1" xmlns="http://www.w3.org/2000/svg" xmlns:xlink="http://www.w3.org/1999/xlink" x="0px" y="0px"
	 viewBox="0 0 500 500" style="enable-background:new 0 0 500 500;" xml:space="preserve">
<style type="text/css">
	.st0{fill:#7AA833;stroke:#381F0E;stroke-width:1.5;stroke-linecap:round;stroke-linejoin:round;stroke-miterlimit:10;}
	.st1{opacity:0.3;fill:#81B929;}
	.st2{fill:#F2721B;stroke:#381F0E;stroke-width:1.5;stroke-linecap:round;stroke-linejoin:round;stroke-miterlimit:10;}
	.st3{fill:#FFC629;stroke:#381F0E;stroke-width:1.5;stroke-linecap:round;stroke-linejoin:round;stroke-miterlimit:10;}
	.st4{fill:#D34636;stroke:#381F0E;stroke-width:1.5;stroke-linecap:round;stroke-linejoin:round;stroke-miterlimit:10;}
	.st5{fill:#F34A47;stroke:#381F0E;stroke-width:1.5;stroke-linecap:round;stroke-linejoin:round;stroke-miterlimit:10;}
	.st6{opacity:0.2;fill:#FFFFFF;}
	.st7{fill:#FFAE00;}
	.st8{fill:none;stroke:#381F0E;stroke-width:1.5;stroke-linecap:round;stroke-linejoin:round;stroke-miterlimit:10;}
	.st9{fill:#381F0E;}
</style>
<g id="BACKGROUND">
</g>
<g id="OBJECTS">
	<g>
		<g>
			<path class="st0" d="M295.7,198.9c5.7-2.7,12.4,2.3,14.9,8.1c5.9,13.9,13.8-0.7,21.7,0.7c7.4,1.3,6.8,10.2,5.4,16.8
				c10.5-2.3,12.9-3.3,14.5-1.6c2.1,2.2,2.2,13.6-6.5,23.6c-7.1,8.1-21.3,16.1-25.3,16.7C300,266.7,270.3,210.8,295.7,198.9z"/>
			<path class="st1" d="M293.2,218.5c0.2-8.3,5.4-11.3,9-9.6c5.3,2.4,3.8,17.1,14.9,11c2.1-1.2,4.1-2.8,6.4-3.5
				c3.6-1.1,8.4,0.8,8.8,4.6c0.2,2-0.7,4.4,0.7,5.8c2,2,5.3-0.6,8.1-0.6c6.3,0.1,8.2,12.3-1.6,18.8
				C323.6,255.6,292.5,242.5,293.2,218.5z"/>
		</g>
		<g>
			<path class="st0" d="M104.6,321.5c0.6-8.5,13.4-12.2,8.3-20.4c-8.8-14.1-2.2-25.7,6.5-26.5c5.9-0.5,10.2,1.5,9.9-7.4
				c-0.8-20.1,15.6-27.6,28.6-18c13.5,10,19.9,39.9,4.8,62.9C141,345,103.1,341.7,104.6,321.5z"/>
			<path class="st1" d="M118.3,323.5c-1.5-4.3,1.8-10.7,6-13.9c9.1-6.8-3.6-12,0.2-17.7c3.6-5.3,9.8,2.3,10.9-14.2
				c1.9-27.2,46.8-13,15.1,35.6C146,320.2,123.5,338.7,118.3,323.5z"/>
		</g>
		<g>
			<path class="st0" d="M170.2,220.9c4.5-21.3,19.4-8,27-9.3c4.9-0.8,7.1-6.5,10.6-10.1c10.8-10.9,25.8,0,31.9,9.7
				c39.1-30,50.1,19.4,17.8,42.2C220.7,279.5,160.4,266.5,170.2,220.9z"/>
			<path class="st1" d="M181.4,240.5c-4.6-8.1,1.1-18.2,7.7-18.4c6.4-0.2,11.2,7.6,15.9-3.6c5.4-12.9,14.9-14.4,20-10.9
				c6.2,4.2,8.3,23.2,26,7.1c21.2-19.3,32.2,10.6,0.3,32.5c-7.9,5.4-27.2,13.8-36.4,12.8c-8.2-0.8-12.1-6.4-18.6-10.3
				C191.3,246.6,184.6,246.1,181.4,240.5z"/>
		</g>
		<g>
			<path class="st0" d="M364.3,255.3c4,8.1-1.3,19.7,2.1,21.4c2.2,1.1,11-5.3,17.8-0.1c5.5,4.1,6,13.8-3,21.2
				c-10.9,9,8.8,4.9,14.5,12.7c8.4,11.5-13,26.2-26,25.8c-28.6-0.8-49.1-60.1-39.4-76.9C336.6,248.6,357.3,241.2,364.3,255.3z"/>
			<path class="st1" d="M342.7,260c7.5-4.5,17.6-1.2,16.3,12.8c-0.3,3.3-2.3,12.9,0.1,15.1c2.4,2.2,12.9-3.9,14.6,3.5
				c1,4.5-5.5,7.5-5.6,12c-0.1,5.3,7.6,6.9,10,11.5c3.8,7.2-8.3,22.3-26.1-0.2C341.5,301.8,320.6,273.3,342.7,260z"/>
		</g>
		<path class="st2" d="M154.1,250.1c-13.3-11.9,1.1-26.8,8.8-18.7c-2.9-9.8,5.6-14,11.1-8.2c8.4,9,6.8,46.9-17.8,50.9
			C130.4,278.3,146.4,243.3,154.1,250.1z"/>
		<path class="st2" d="M291.3,204.2c3.8,1.4,6.4,5.8,5,9.6c9.3-9.1,15.4-4,12.1,5c6.9-3.4,12.8-3,13,4.3c0.7,20-30.1,27.3-43.8,17.3
			C264.1,230.4,271.7,197,291.3,204.2z"/>
		<path class="st2" d="M366.2,280.3c3.3-2,8.1,4.6,0.9,8.5c-9.6,5.2-20.6-3.5-17.5-14.5C353.2,261.4,372,265.3,366.2,280.3z"/>
		<path class="st3" d="M121.5,306.3c-5.8-0.6-12.8-1.3-14.6-7.3c-1-3.3,0.7-9.4,9.1-6.3c4.6,1.7,23.4,5.5,23.8,11.2
			C140.2,311.9,125.7,306.7,121.5,306.3z"/>
		<path class="st3" d="M192.9,220c-1.9-4.2-8.3-15.8,0-18.1c6.3-1.7,8.8,9.8,10.3,14.3c1.4,4.3,9.9,22.8,5.3,24.4
			C201.5,243,194.4,223.4,192.9,220z"/>
		<path class="st3" d="M354.8,234.6c2.2-0.6,9.3,3.8,8.6,7.9c-0.2,1.4-19.4,32.5-29.3,32C330.7,260.6,350.8,235.7,354.8,234.6z"/>
		<g>
			<circle class="st4" cx="241.5" cy="216.4" r="22.1"/>
			<circle class="st5" cx="241.5" cy="216.4" r="12.1"/>
		</g>
		<g>
			
				<ellipse transform="matrix(0.1593 -0.9872 0.9872 0.1593 32.4968 528.3708)" class="st4" cx="326.5" cy="245.1" rx="22.1" ry="22.1"/>
			
				<ellipse transform="matrix(0.1597 -0.9872 0.9872 0.1597 32.378 528.2475)" class="st5" cx="326.5" cy="245.1" rx="12.1" ry="12.1"/>
		</g>
		<g>
			<circle class="st4" cx="363.4" cy="308.3" r="22.1"/>
			<circle class="st5" cx="363.4" cy="308.3" r="12.1"/>
		</g>
		<g>
			
				<ellipse transform="matrix(0.1593 -0.9872 0.9872 0.1593 -160.265 384.3298)" class="st4" cx="145.5" cy="286.3" rx="22.1" ry="22.1"/>
			
				<ellipse transform="matrix(0.1597 -0.9872 0.9872 0.1597 -160.3061 384.2016)" class="st5" cx="145.5" cy="286.3" rx="12.1" ry="12.1"/>
		</g>
		<path class="st6" d="M113.5,315.6c-3.4,1.1-6.2,10.2-0.5,15.4c0.7,0.7,1.9-0.2,1.4-1.1c-1.9-3.1-2-7.7,0.5-11.4
			C116.2,316.6,114.7,315.2,113.5,315.6z"/>
		<g>
			<path class="st6" d="M113.1,299.1c-0.5-0.2-0.5-0.2-0.5-0.2C112.8,299,112.9,299.1,113.1,299.1z"/>
			<path class="st6" d="M119.2,298.5c-4.9-5.7-9.7-3.9-8.2-1C111.9,299.2,123.1,303.6,119.2,298.5z"/>
		</g>
		<path class="st6" d="M119.4,277.4c-3.9,0.1-7.3,4.6-7.3,8.1c0,3.9,2.3,4.5,2.6,2.2c0.4-4,2.5-6.1,5.3-8
			C121.1,279.1,120.7,277.3,119.4,277.4z"/>
		<path class="st6" d="M136.5,269.6c-7.6,1.8-12.2,12.1-8.7,19.3c0.4,0.9,2,0.5,1.9-0.5c-0.6-6.9,2.3-12.4,7.8-16.3
			C138.8,271.2,138.1,269.2,136.5,269.6z"/>
		<path class="st6" d="M141.1,249.2c-5-0.1-10.8,9.1-7.9,14.6c1.2,2.4,2.5-3.5,2.8-4.5c0,0.1,0.1-1.7,4.8-6.4c0.6-0.6,1-0.8,1.6-1.5
			C143.1,250.5,142.2,249.3,141.1,249.2z"/>
		<path class="st6" d="M151.7,252.6c-1.9-2.4-7.1,4.6-4.9,9.3c0.4,0.8,1.9,1,2.1-1.8C149.5,255.6,152.8,254.1,151.7,252.6z"/>
		<path class="st6" d="M157.7,232.6c-2.4-3.1-9.1,5.2-5.1,11c1.6,2.3,3.4,1.6,2.8-0.2c0-0.1,0,0-0.2-0.9
			C153.6,236.1,159.5,235,157.7,232.6z"/>
		<path class="st6" d="M170,224.6c-1.2-1.9-5.5,0-4.4,4.1c0.2,0.8,1.4,1.2,2-0.4C168,227.1,171.1,226.3,170,224.6z"/>
		<path class="st6" d="M185.3,213.4c-3-2.2-8.9,0-10.2,4.9c-0.5,2,0.8,4.2,2.6,0.8c2.1-2.2,2.7-2.9,6.8-2.9
			C185.9,216.2,186.7,214.4,185.3,213.4z"/>
		<path class="st6" d="M197.7,216c-2.3-3-1.8-7.3-3-8.5c-1.5-3.5-6.7,0.4-0.5,8C197.3,219.4,198.6,217.1,197.7,216z"/>
		<path class="st6" d="M218.2,200.3c-3.7-0.4-9.5,3.1-11.5,6.7c-2,3.6,0.3,3.6,1,2.7c4-5.4,9.9-6.5,10.8-6.8
			C220,202.3,219.7,200.5,218.2,200.3z"/>
		<path class="st6" d="M250.2,199.5c-6.3-5.7-23.5-0.9-25.5,10c-0.2,1.2,1.2,1.7,1.9,0.8c1.2-1.6,2.2-3.3,3.8-4.7
			c7.8-7.2,16.3-3.4,18.6-3.2C250.5,202.5,251.3,200.5,250.2,199.5z"/>
		<g>
			<path class="st6" d="M265.2,207.7C265.2,207.7,265.2,207.7,265.2,207.7C265.3,207.8,265.3,207.7,265.2,207.7z"/>
			<path class="st6" d="M268.7,207.9c-1.5-3.9-7-3-6.2-1c0.5,1.1,2,0,3.5,1.3c0.7,0.6,1,1.6,2,1.1
				C268.5,209.1,268.9,208.5,268.7,207.9z"/>
		</g>
		<path class="st6" d="M291.4,212.5c-2.2-5.4-10-6.1-13.4-2.4c-0.8,0.9,0.2,2.3,1.3,1.7c3.5-2,7.7-0.2,9.5,2.2
			C290.1,215.8,292.4,214.8,291.4,212.5z"/>
		<g>
			<path class="st6" d="M300.9,205c0,0,0.1,0.1,0.1,0.1C301,205.1,300.9,205,300.9,205z"/>
			<path class="st6" d="M300.1,204.5C300.4,204.7,300.2,204.6,300.1,204.5L300.1,204.5z"/>
			<path class="st6" d="M304.4,204.1c-1.1-2.2-3.9-3-6-2.2c-1.9,0.7-1.5,2.5,0,2.3c0.1,0.1,1.8-0.3,3.4,1.4
				C303.3,207.5,305.3,205.9,304.4,204.1z"/>
		</g>
		<path class="st6" d="M326.9,210.6c-3.1,1.4-1.4,3.7-0.2,2.8c2.6-1.9,4.6,1.1,5.7,1C335.9,214,332.4,208.3,326.9,210.6z"/>
		<g>
			<path class="st6" d="M304.9,215.7c-1.1-2.6-4.6-2.5-5.6,0.1c-0.5,1.3,0.6,2.3,1.4,1.4c0.3-0.2,1.1-1.7,1.9,0
				C303.4,219.7,305.8,217.8,304.9,215.7z"/>
			<path class="st6" d="M302.8,217.8c0,0,0,0-0.1-0.2C302.7,217.6,302.8,217.7,302.8,217.8z"/>
			<path class="st6" d="M302.7,217.6L302.7,217.6C302.7,217.5,302.7,217.6,302.7,217.6z"/>
		</g>
		<path class="st6" d="M314.9,221.8c-1.5-3.1-6.2-0.7-3.3,0.6c-0.1,0,0-0.1,0.7,0.5c-0.9-0.7,0.7,0.7,0.7,0.7
			C314.5,224.3,315.6,222.9,314.9,221.8z"/>
		<path class="st6" d="M338.4,231.6c-7.8-10.6-20.6-3.3-14.9-2.9c7.6,0.5,10.4,1.9,14,9C338.6,239.9,342.7,237.4,338.4,231.6z"/>
		<path class="st6" d="M349.8,227.8c-0.8-2.1-2.9-3.3-4.5-3.3c-1.2-0.1-1.6,1.7-0.6,2.2c1.8,0.9,2,1.4,3.1,3.3
			C348.5,231.3,350.9,230.8,349.8,227.8z"/>
		<path class="st6" d="M355.7,239.8c-2.7,1.4-6.1,14.1-0.9,9C361.1,242.7,359,236.6,355.7,239.8z"/>
		<path class="st6" d="M362.9,259.4c-2.5-7.3-6-5.9-4.6-3.4c2.6,4.8,2.4,7.2,4.1,6.7C363.8,262.1,363.4,260.7,362.9,259.4z"/>
		<g>
			<path class="st6" d="M364.4,274.1c-0.4-1.8-1.7-3.3-3.3-3.9c-1.3-0.6-1.9,1-1.2,1.6c1.3,1.1,2,2.9,2.2,3.9
				C362.4,277.6,365.2,277.6,364.4,274.1z"/>
			<path class="st6" d="M362,275.4C362,275.4,362.1,275.7,362,275.4C362.1,275.5,362.1,275.5,362,275.4z"/>
			<path class="st6" d="M360.7,272.5C360.7,272.4,360.6,272.3,360.7,272.5L360.7,272.5z"/>
			<path class="st6" d="M361.5,273.8c0,0,0,0.1,0.1,0.2L361.5,273.8z"/>
		</g>
		<g>
			<path class="st6" d="M375.8,279.6c-0.1,0-0.1,0-0.1,0C375.8,279.6,375.8,279.6,375.8,279.6z"/>
			<path class="st6" d="M379.9,283.3C379.9,283.3,379.9,283.3,379.9,283.3C379.9,283.3,379.9,283.3,379.9,283.3z"/>
			<path class="st6" d="M384.3,283c-2-9.3-14.5-5.6-9.2-3.5c2.1,1.3,4.2,0.9,5.3,5.7C381.5,289.4,385.2,287,384.3,283z"/>
		</g>
		<path class="st6" d="M380.6,299.2c-4-8-11.3-8.3-8.9-5.5c3.6,4.2,6.3,3.5,7.3,16.1C379.4,313.9,385.5,308.9,380.6,299.2z"/>
		<path class="st6" d="M389.1,314.3c-2.3,3.7-4.7,14.1-8.4,12.2c-1.3-0.8-2.2,1.9,0.9,2.4c5.2,0.8,8.9-7.6,9.8-11
			C392.6,313,389.8,313.2,389.1,314.3z"/>
	</g>
	<g>
		<path class="st3" d="M332.9,341.2c-13,1.1-166.9,0.6-196.4-6.2c-18.9-4.4,0.8-94,77.2-117.6c56.7-17.5,136.9,8.1,153.7,97.6
			C371.8,338.7,355.3,339.4,332.9,341.2z"/>
		<path class="st7" d="M195.4,255.9c1,5.6-5.1,17.9-0.9,38.6c6.2,30.1,31.2-24.3,45.2-19.3c6.7,2.4,8.4,16,14.9,24.3
			c4.3,5.5,12.5,9.1,18.3,5.2c3.3-2.2,16.6-24.7,22.2-23.6c4.8,0.9,4.8,18.8,13.7,21c11.7,2.9,14.5-15.4,24.3-18.7
			c5.7,7.5,21.3,32.9,17.6,41c-3.2,7.1-8.3,5.5-78.2,8.3c-125.1,5-142.2,11.8-127-28.7C156.6,274.6,192,235.7,195.4,255.9z"/>
		<path class="st8" d="M145.3,319.3c6.8-30.6,25.7-58.2,51.6-75.8"/>
		<path class="st8" d="M219.2,235.3c14.3-4.7,30.1-4.9,44.6-0.8"/>
		<path class="st8" d="M328.2,277.4c12.4,13.8,20.6,31.5,23.1,49.9"/>
		<path class="st9" d="M172.8,303.5c0,0.9-0.8,1.7-1.7,1.7c-0.9,0-1.7-0.8-1.7-1.7s0.8-1.7,1.7-1.7
			C172,301.8,172.8,302.5,172.8,303.5z"/>
		<path class="st9" d="M220.9,296.2c0,0.9-0.8,1.7-1.7,1.7c-0.9,0-1.7-0.8-1.7-1.7c0-0.9,0.8-1.7,1.7-1.7
			C220.1,294.5,220.9,295.2,220.9,296.2z"/>
		<path class="st9" d="M297.4,250.3c0,0.9-0.8,1.7-1.7,1.7c-0.9,0-1.7-0.8-1.7-1.7c0-0.9,0.8-1.7,1.7-1.7
			C296.6,248.6,297.4,249.4,297.4,250.3z"/>
		<path class="st9" d="M295.7,300.1c0,0.9-0.8,1.7-1.7,1.7c-0.9,0-1.7-0.8-1.7-1.7c0-0.9,0.8-1.7,1.7-1.7
			C294.9,298.4,295.7,299.1,295.7,300.1z"/>
		<path class="st9" d="M208.9,263.2c0,0.9-0.8,1.7-1.7,1.7c-0.9,0-1.7-0.8-1.7-1.7c0-0.9,0.8-1.7,1.7-1.7
			C208.1,261.5,208.9,262.3,208.9,263.2z"/>
		<path class="st9" d="M264.3,277.4c0,0.9-0.8,1.7-1.7,1.7c-0.9,0-1.7-0.8-1.7-1.7c0-0.9,0.8-1.7,1.7-1.7
			C263.5,275.7,264.3,276.5,264.3,277.4z"/>
		<path class="st9" d="M249.2,313.1c0,0.9-0.8,1.7-1.7,1.7c-0.9,0-1.7-0.8-1.7-1.7c0-0.9,0.8-1.7,1.7-1.7
			C248.4,311.4,249.2,312.1,249.2,313.1z"/>
		<path class="st9" d="M329.9,313.1c0,0.9-0.8,1.7-1.7,1.7c-0.9,0-1.7-0.8-1.7-1.7c0-0.9,0.8-1.7,1.7-1.7
			C329.1,311.4,329.9,312.1,329.9,313.1z"/>
		<path class="st9" d="M318.9,266.3c0,0.9-0.8,1.7-1.7,1.7c-0.9,0-1.7-0.8-1.7-1.7c0-0.9,0.8-1.7,1.7-1.7
			C318.2,264.6,318.9,265.3,318.9,266.3z"/>
		<path class="st9" d="M250.9,246.8c0,0.9-0.8,1.7-1.7,1.7s-1.7-0.8-1.7-1.7s0.8-1.7,1.7-1.7S250.9,245.9,250.9,246.8z"/>
		<path class="st6" d="M317.5,243.6c-44.3-40.2-123.9-34.9-162.4,23.1c-10.1,15.2-16.9,36.2-21.2,53.9c-0.3,1.2,1.4,1.7,1.9,0.5
			c6.4-15.7,10.7-30,21-46.5c29.8-47.5,97.6-69.6,156.5-25.6C316.3,251.2,320.6,246.4,317.5,243.6z"/>
		<path class="st6" d="M336.7,265.6c-1.1-0.9-2.5,0.5-1.6,1.6c15.8,18.4,18.4,37,20.3,40.6c1.2,2.1,3.9,0.9,4.2-1.1
			C360.4,299.9,353.1,279.6,336.7,265.6z"/>
		<path class="st6" d="M241.4,243.5c-9.8,3.9-25.1,24.5-29.7,33.9c-0.5,1,0.8,2.3,1.7,1.3c5-5.4,9.7-11.1,14.8-16.6
			c6.8-7.3,12.2-11.1,15.1-16.3C243.8,244.8,242.8,242.9,241.4,243.5z"/>
		<path class="st6" d="M231.1,267.9c-0.8,1-1.5,6.4,10-4.7C257.2,247.5,244.2,251.2,231.1,267.9z"/>
		<path class="st6" d="M293.4,253.1c-16.5,9.7-38.9,50.2-18.6,25c9.1-11.3,17.5-18.6,20.7-22.8C296.5,253.9,294.6,252.3,293.4,253.1
			z"/>
		<path class="st6" d="M296.5,262c-5.8,4.1-17.5,15.2-15.2,17.5c2,2,3.2-2.8,17.2-14.9C299.9,263.4,298.1,261,296.5,262z"/>
	</g>
	<g>
		<path class="st8" d="M87,271.2c-7.4-2.1-14.9-4.2-22.3-6.3"/>
		<path class="st8" d="M121.8,232.1c-10.8-4.5-21-10.7-30-18.1"/>
		<path class="st8" d="M158.7,198.1c-4.3-4.8-8.5-9.6-12.8-14.3"/>
		<path class="st8" d="M209.7,180.6c0.8-11.2-0.2-22.6-2.9-33.5"/>
		<path class="st8" d="M260.8,179c1-6.4,2.1-12.8,3.1-19.1"/>
		<path class="st8" d="M313.2,178.9c4.7-7.5,9.4-15,14.1-22.5"/>
		<path class="st8" d="M362.7,204.5c4.1-2,7.5-5.4,9.5-9.6"/>
		<path class="st8" d="M391.5,246.2c7.4-3.3,14.8-6.6,22.1-10"/>
		<path class="st8" d="M409,290.5c5.3,0.9,11.6-0.1,16-1.2"/>
	</g>
</g>
<g id="TEXTS">
</g>
</svg>
