<?xml version="1.0" encoding="utf-8"?>
<!-- Generator: Adobe Illustrator 27.3.1, SVG Export Plug-In . SVG Version: 6.00 Build 0)  -->
<svg version="1.1" xmlns="http://www.w3.org/2000/svg" xmlns:xlink="http://www.w3.org/1999/xlink" x="0px" y="0px"
	 viewBox="0 0 1827.09 427.16" style="enable-background:new 0 0 1827.09 427.16;" xml:space="preserve">
<style type="text/css">
	.st0{fill:#F26E77;}
	.st1{fill:#FFFFFF;}
	.st2{fill:#4A62D9;}
</style>
<g id="diamond">
</g>
<g id="X">
</g>
<g id="I">
</g>
<g id="R">
</g>
<g id="a">
</g>
<g id="N">
</g>
<g id="A">
</g>
<g id="Base">
	<g>
		<polygon class="st0" points="353.85,192.42 419.95,116.99 353.19,42.59 287.09,118.01 		"/>
		<path class="st1" d="M1650.46,380.9h-20.5c-16.48,0-31.92-8.09-41.29-21.65l-16.55-23.94l-14.02,19.9
			c-11.36,16.11-29.84,25.7-49.55,25.7h-15.69l56.61-77.43l-47.13-65.49h20.98c16.56,0,32.05,8.17,41.41,21.82l7.69,11.23v0
			c13.77-20.65,36.94-33.05,61.76-33.05h7.41l-47.13,65.49L1650.46,380.9z"/>
		<path class="st1" d="M1426.45,188.71c0-13.47,11.63-23.87,25.4-23.87c14.08,0,25.4,10.4,25.4,23.87s-11.32,24.18-25.4,24.18
			C1438.08,212.89,1426.45,202.18,1426.45,188.71z M1431.96,340.81V237.98l0,0c22.14,0,40.09,17.95,40.09,40.09V380.9h0
			C1449.91,380.9,1431.96,362.95,1431.96,340.81z"/>
		<path class="st1" d="M1410.55,238.9l-9.18,38.25c-8.57-4.59-15.61-5.2-20.5-5.2c-20.5,0-34.58,19.28-34.58,59.98v48.97h0
			c-22.14,0-40.09-17.95-40.09-40.09V237.98h39.78v30.61c7.96-23.87,24.18-34.28,41.93-34.28
			C1395.55,234.31,1404.12,235.53,1410.55,238.9z"/>
		<path class="st1" d="M1225.71,237.98h5.06c19.35,0,35.04,15.69,35.04,35.04V380.9h-40.09v-20.5
			c-9.49,14.69-27.85,24.18-47.13,24.18c-39.48,0-68.86-30.6-68.86-74.98c0-44.37,28.77-75.28,69.78-75.28
			c18.36,0,36.73,7.96,46.21,22.65V237.98z M1224.49,309.59c0-21.73-17.45-37.95-37.34-37.95c-20.81,0-36.42,17.14-36.42,37.95
			c0,19.89,15.61,37.64,36.72,37.64C1207.66,347.24,1224.49,330.1,1224.49,309.59z"/>
		<path class="st1" d="M1079.75,302.55v78.34h-40.09v-76.2c0-22.34-13.47-32.44-27.24-32.44c-14.38,0-32.13,7.65-32.13,33.66v74.98
			H940.2V273.64c0-19.7,15.97-35.66,35.66-35.66h4.43v24.18c6.12-19.28,28.77-27.85,42.84-27.85
			C1060.47,234.31,1080.06,259.71,1079.75,302.55z"/>
		<path class="st1" d="M866.5,350.37l-6.78-19.97h-78.96l-6.58,19.74c-6.12,18.37-23.31,30.76-42.68,30.76h-12.87l78.65-210.86h45.9
			l78.34,210.86h-12.44C889.82,380.9,872.69,368.62,866.5,350.37z M793.31,293.37h53.86l-26.93-79.87L793.31,293.37z"/>
		<g>
			<path class="st2" d="M453.36,154.23l-99.08,113.05L254.11,155.64L53.49,384.57h155.4c27.16,0,53-11.71,70.9-32.14l74.71-85.25
				l77.23,86.07c17.88,19.93,43.39,31.31,70.16,31.31h158.14L453.36,154.23z"/>
		</g>
	</g>
</g>
</svg>
